# xmcd
#
# Track frame offsets:
# 150
# 17847
# 34115
# 50085
# 69695
# 89760
# 107382
# 130712
# 152385
# 164952
#
# Disc length: 2391 seconds
#
#
# Revision: 0
# Processed by: cddbd v1.5.1PL0 Copyright (c) Steve Scherf et al.
# Submitted via: FreeRIP 2.942 
#
DISCID=8509550a
DTITLE=Ronny Spears - Modern Day Outlaw
DYEAR=1900
DGENRE=Country
TTITLE0=Modern Day Outlaw
TTITLE1=It Takes Time
TTITLE2=Whiskey'O
TTITLE3=Tequila Talkin'
TTITLE4=I'm Missing You
TTITLE5=Feel The Pain
TTITLE6=The Road
TTITLE7=The Cowboy
TTITLE8=Who Gave you the Right
TTITLE9=A Memory to Me
EXTD=
EXTT0=
EXTT1=
EXTT2=
EXTT3=
EXTT4=
EXTT5=
EXTT6=
EXTT7=
EXTT8=
EXTT9=
PLAYORDER=
